<?xml version="1.0" encoding="UTF-8"?>
<svg fill="none" stroke-linecap="square" stroke-miterlimit="10" version="1.1" viewBox="0 0 512 512" xmlns="http://www.w3.org/2000/svg">
 <clipPath id="p.0">
  <path d="m0 0h512v512h-512v-512z"/>
 </clipPath>
 <g clip-path="url(#p.0)" fill-rule="evenodd">
  <g fill="#000">
   <path d="m0 0h512v512h-512z" fill-opacity="0"/>
   <path d="m145.1 97.493v19.777h-13.135v13.135h13.135v46.419c0 5.5226 0.89554 9.9505 2.6866 13.284 1.7911 3.3334 4.2787 5.7381 7.4629 7.2141 3.1842 1.4594 6.841 2.1891 10.971 2.1891 2.5374 0 4.7846-0.17413 6.7415-0.5224 1.9735-0.34827 3.7066-0.74629 5.1992-1.1941l-0.074631-13.732c-0.69653 0.14926-1.617 0.29852-2.7613 0.44778-1.1443 0.14925-2.3384 0.22388-3.5822 0.22388-1.7413 0-3.2588-0.22388-4.5524-0.67166-1.2936-0.44777-2.3052-1.3267-3.0349-2.6369-0.71312-1.3268-1.0697-3.2339-1.0697-5.7216v-45.3h14.403v-13.135h-14.403v-19.777z"/>
   <path d="m201.67 86.523c-3.2339 0-5.763 0.91213-7.5873 2.7364-1.8077 1.8077-2.7115 4.0797-2.7115 6.8161 0 2.6867 0.90384 4.9255 2.7115 6.7166 1.8243 1.7911 4.3534 2.6867 7.5873 2.6867 3.1842 0 5.6967-0.89555 7.5376-2.6867 1.8409-1.7911 2.7613-4.03 2.7613-6.7166 0-2.7364-0.92043-5.0084-2.7613-6.8161-1.8409-1.8243-4.3534-2.7364-7.5376-2.7364zm-9.1048 30.747v80.749h18.06v-80.749z"/>
   <path d="m271.38 115.78c-4.826 0-9.2043 0.93701-13.135 2.811-3.9305 1.8574-7.3054 4.5026-10.125 7.9356-0.13599 0.16656-0.27054 0.33471-0.40364 0.50444l-0.59142-9.7585h-16.941v80.749h17.986v-57.371c0.58144-1.1183 1.2365-2.1693 1.9652-3.1531 1.675-2.2389 3.7315-4.0051 6.1693-5.2987 2.4379-1.2936 5.1992-1.9404 8.2838-1.9404 3.1344 0 5.7548 0.48924 7.861 1.4677 2.1228 0.96188 3.7397 2.5788 4.8509 4.8509 1.1277 2.2554 1.6916 5.3235 1.6916 9.2043v52.24h18.06v-52.166c0-5.5226-0.59705-10.183-1.7911-13.981-1.1941-3.8144-2.9271-6.9156-5.1992-9.3038-2.2555-2.3881-4.967-4.1129-8.1346-5.1743-3.151-1.078-6.6669-1.617-10.548-1.617z"/>
   <path d="m307.05 117.27 28.596 80.548-2.6247 7.0665c-0.89554 2.6866-1.9818 4.826-3.2588 6.4181-1.2604 1.5921-2.8857 2.7447-4.8758 3.4578-1.9901 0.72971-4.4778 1.0946-7.4629 1.0946-0.44778 0-1.0365-0.024872-1.7662-0.074631-0.71313-0.049759-1.3185-0.099503-1.816-0.14926l0.074615 13.732c1.2936 0.29851 2.6701 0.58044 4.1295 0.84579 1.476 0.28194 3.0101 0.4229 4.6021 0.4229 4.03 0 7.4629-0.66336 10.299-1.9901 2.8359-1.3102 5.2075-3.0266 7.1147-5.1494 1.9238-2.1062 3.4827-4.3285 4.6768-6.6669s2.1642-4.5026 2.9105-6.4927l32.389-93.063h-19.254l-16.825 55.169-17.504-55.169z"/>
  </g>
  <g stroke="#fff" stroke-linecap="butt" stroke-linejoin="round" stroke-width="24">
   <path d="m145.1 97.493v19.777h-13.135v13.135h13.135v46.419c0 5.5226 0.89554 9.9505 2.6866 13.284 1.7911 3.3334 4.2787 5.7381 7.4629 7.2141 3.1842 1.4594 6.841 2.1891 10.971 2.1891 2.5374 0 4.7846-0.17413 6.7415-0.5224 1.9735-0.34827 3.7066-0.74629 5.1992-1.1941l-0.074631-13.732c-0.69653 0.14926-1.617 0.29852-2.7613 0.44778-1.1443 0.14925-2.3384 0.22388-3.5822 0.22388-1.7413 0-3.2588-0.22388-4.5524-0.67166-1.2936-0.44777-2.3052-1.3267-3.0349-2.6369-0.71312-1.3268-1.0697-3.2339-1.0697-5.7216v-45.3h14.403v-13.135h-14.403v-19.777z"/>
   <path d="m201.67 86.523c-3.2339 0-5.763 0.91213-7.5873 2.7364-1.8077 1.8077-2.7115 4.0797-2.7115 6.8161 0 2.6867 0.90384 4.9255 2.7115 6.7166 1.8243 1.7911 4.3534 2.6867 7.5873 2.6867 3.1842 0 5.6967-0.89555 7.5376-2.6867 1.8409-1.7911 2.7613-4.03 2.7613-6.7166 0-2.7364-0.92043-5.0084-2.7613-6.8161-1.8409-1.8243-4.3534-2.7364-7.5376-2.7364zm-9.1048 30.747v80.749h18.06v-80.749z"/>
   <path d="m271.38 115.78c-4.826 0-9.2043 0.93701-13.135 2.811-3.9305 1.8574-7.3054 4.5026-10.125 7.9356-0.13599 0.16656-0.27054 0.33471-0.40364 0.50444l-0.59142-9.7585h-16.941v80.749h17.986v-57.371c0.58144-1.1183 1.2365-2.1693 1.9652-3.1531 1.675-2.2389 3.7315-4.0051 6.1693-5.2987 2.4379-1.2936 5.1992-1.9404 8.2838-1.9404 3.1344 0 5.7548 0.48924 7.861 1.4677 2.1228 0.96188 3.7397 2.5788 4.8509 4.8509 1.1277 2.2554 1.6916 5.3235 1.6916 9.2043v52.24h18.06v-52.166c0-5.5226-0.59705-10.183-1.7911-13.981-1.1941-3.8144-2.9271-6.9156-5.1992-9.3038-2.2555-2.3881-4.967-4.1129-8.1346-5.1743-3.151-1.078-6.6669-1.617-10.548-1.617z"/>
   <path d="m307.05 117.27 28.596 80.548-2.6247 7.0665c-0.89554 2.6866-1.9818 4.826-3.2588 6.4181-1.2604 1.5921-2.8857 2.7447-4.8758 3.4578-1.9901 0.72971-4.4778 1.0946-7.4629 1.0946-0.44778 0-1.0365-0.024872-1.7662-0.074631-0.71313-0.049759-1.3185-0.099503-1.816-0.14926l0.074615 13.732c1.2936 0.29851 2.6701 0.58044 4.1295 0.84579 1.476 0.28194 3.0101 0.4229 4.6021 0.4229 4.03 0 7.4629-0.66336 10.299-1.9901 2.8359-1.3102 5.2075-3.0266 7.1147-5.1494 1.9238-2.1062 3.4827-4.3285 4.6768-6.6669s2.1642-4.5026 2.9105-6.4927l32.389-93.063h-19.254l-16.825 55.169-17.504-55.169z"/>
  </g>
  <g fill="#000">
   <path d="m120.85 246.41c6.7845 0 12.267 1.2678 16.447 3.8034 4.1804 2.5356 7.2414 5.8822 9.1831 10.04 1.9646 4.1346 2.9468 8.5663 2.9468 13.295 0 5.0027-0.98227 9.4457-2.9468 13.329-1.9417 3.8605-5.0027 6.8873-9.1831 9.0802-4.1804 2.1929-9.6628 3.2894-16.447 3.2894h-31.044v-52.837zm-56.846-20.559v149.67h25.802v-55.818h31.044c11.582 0 21.427-1.8503 29.537-5.5509 8.1323-3.7006 14.323-9.0117 18.572-15.933 4.2489-6.9215 6.3734-15.214 6.3734-24.876 0-9.183-2.1245-17.349-6.3734-24.499-4.2489-7.1728-10.44-12.792-18.572-16.858-8.1095-4.089-17.955-6.1334-29.537-6.1334z"/>
   <path d="m255.61 244.87c5.688 0 10.794 1.1193 15.317 3.358 4.523 2.2158 8.3379 5.5052 11.445 9.8683 3.1296 4.3402 5.4939 9.7198 7.0929 16.139 1.6219 6.3961 2.4329 13.775 2.4329 22.135v8.4292c0 8.3607-0.81094 15.762-2.4329 22.204-1.599 6.4418-3.9405 11.879-7.0244 16.31-3.0839 4.4088-6.8531 7.7325-11.308 9.9711-4.4545 2.2158-9.56 3.3237-15.317 3.3237-5.688 0-10.759-1.1079-15.214-3.3237-4.4545-2.2386-8.2808-5.5623-11.479-9.9711-3.1753-4.4316-5.5853-9.8683-7.23-16.31-1.6447-6.4418-2.4671-13.843-2.4671-22.204v-8.4292c0-8.3607 0.82237-15.739 2.4671-22.135 1.6447-6.419 4.0205-11.799 7.1272-16.139 3.1296-4.3631 6.9216-7.6525 11.376-9.8683 4.4545-2.2386 9.5258-3.358 15.214-3.358zm0-21.073c-9.1831 0-17.567 1.6676-25.151 5.0027-7.5612 3.3123-14.106 8.1436-19.634 14.494-5.5053 6.3276-9.7656 13.969-12.781 22.923-3.0154 8.9317-4.523 19.051-4.523 30.359v8.2236c0 11.307 1.5191 21.45 4.5573 30.427 3.061 8.9774 7.367 16.618 12.918 22.923 5.551 6.3047 12.107 11.125 19.668 14.46 7.5841 3.3123 15.968 4.9684 25.151 4.9684 9.2516 0 17.681-1.6561 25.288-4.9684 7.6069-3.3351 14.129-8.1551 19.565-14.46 5.4596-6.3047 9.6628-13.946 12.61-22.923 2.9468-8.9774 4.4202-19.12 4.4202-30.427v-8.2236c0-11.307-1.4962-21.427-4.4888-30.359-2.9696-8.9546-7.1957-16.596-12.678-22.923-5.4825-6.3504-12.027-11.182-19.634-14.494-7.6069-3.3351-16.036-5.0027-25.288-5.0027z"/>
   <path d="m393.87 223.79c-7.881 0-15.077 1.0165-21.587 3.0496-6.5104 2.0102-12.153 4.8542-16.927 8.532-4.7515 3.6549-8.4179 7.9837-10.999 12.986-2.5585 5.0027-3.8377 10.554-3.8377 16.653 0 6.1677 1.2336 11.604 3.7007 16.31 2.4671 4.6829 5.9279 8.8289 10.382 12.438 4.4545 3.5864 9.6743 6.7388 15.659 9.4571 6.0078 2.6955 12.575 5.1397 19.703 7.3327 6.5104 1.9874 11.867 3.929 16.07 5.825 4.226 1.8731 7.5041 3.8034 9.8341 5.7908s3.952 4.1803 4.8657 6.5789c0.93658 2.3985 1.4049 5.1397 1.4049 8.2236 0 4.0433-1.028 7.6068-3.0839 10.691-2.0559 3.0838-5.1284 5.4824-9.2174 7.1956-4.0661 1.7132-9.1146 2.5699-15.145 2.5699-4.5916 0-8.8976-0.51398-12.918-1.5419-3.9977-1.0279-7.5041-2.6155-10.519-4.7628-3.0154-2.1701-5.3682-4.9684-7.0587-8.3949-1.6676-3.4265-2.5014-7.5726-2.5014-12.438h-25.802c0 7.9495 1.679 14.894 5.037 20.833 3.358 5.9164 7.881 10.851 13.569 14.802 5.688 3.929 12.004 6.853 18.949 8.7718 6.9673 1.9189 14.049 2.8783 21.245 2.8783 8.0181 0 15.294-0.93658 21.827-2.8097 6.5561-1.896 12.176-4.6029 16.859-8.1208 4.7057-3.5407 8.3265-7.8239 10.862-12.849 2.5356-5.0484 3.8035-10.725 3.8035-17.03 0-6.0306-1.028-11.422-3.0839-16.173-2.0559-4.7743-5.1398-9.046-9.2516-12.815-4.1118-3.7692-9.2516-7.1386-15.419-10.108-6.1678-2.9925-13.398-5.7222-21.69-8.1893-5.4825-1.5762-10.245-3.2209-14.289-4.9342-4.0433-1.7133-7.4013-3.5407-10.074-5.4824-2.6727-1.9645-4.6601-4.089-5.9622-6.3733-1.3021-2.3072-1.9531-4.8656-1.9531-7.6753 0-3.9748 0.99368-7.5383 2.9811-10.691 1.9874-3.1524 5.0027-5.6537 9.0461-7.504s9.1146-2.7755 15.214-2.7755c6.4419 0 11.764 1.0965 15.968 3.2894 4.2261 2.1929 7.3785 5.1969 9.4572 9.0117 2.1016 3.792 3.1524 8.1551 3.1524 13.089h25.596c0-8.3607-2.1816-16.002-6.5447-22.923-4.3403-6.9215-10.542-12.438-18.606-16.55-8.0409-4.1118-17.612-6.1677-28.714-6.1677z"/>
  </g>
  <g stroke="#fff" stroke-linecap="butt" stroke-linejoin="round" stroke-width="24">
   <path d="m120.85 246.41c6.7845 0 12.267 1.2678 16.447 3.8034 4.1804 2.5356 7.2414 5.8822 9.1831 10.04 1.9646 4.1346 2.9468 8.5663 2.9468 13.295 0 5.0027-0.98227 9.4457-2.9468 13.329-1.9417 3.8605-5.0027 6.8873-9.1831 9.0802-4.1804 2.1929-9.6628 3.2894-16.447 3.2894h-31.044v-52.837zm-56.846-20.559v149.67h25.802v-55.818h31.044c11.582 0 21.427-1.8503 29.537-5.5509 8.1323-3.7006 14.323-9.0117 18.572-15.933 4.2489-6.9215 6.3734-15.214 6.3734-24.876 0-9.183-2.1245-17.349-6.3734-24.499-4.2489-7.1728-10.44-12.792-18.572-16.858-8.1095-4.089-17.955-6.1334-29.537-6.1334z"/>
   <path d="m255.61 244.87c5.688 0 10.794 1.1193 15.317 3.358 4.523 2.2158 8.3379 5.5052 11.445 9.8683 3.1296 4.3402 5.4939 9.7198 7.0929 16.139 1.6219 6.3961 2.4329 13.775 2.4329 22.135v8.4292c0 8.3607-0.81094 15.762-2.4329 22.204-1.599 6.4418-3.9405 11.879-7.0244 16.31-3.0839 4.4088-6.8531 7.7325-11.308 9.9711-4.4545 2.2158-9.56 3.3237-15.317 3.3237-5.688 0-10.759-1.1079-15.214-3.3237-4.4545-2.2386-8.2808-5.5623-11.479-9.9711-3.1753-4.4316-5.5853-9.8683-7.23-16.31-1.6447-6.4418-2.4671-13.843-2.4671-22.204v-8.4292c0-8.3607 0.82237-15.739 2.4671-22.135 1.6447-6.419 4.0205-11.799 7.1272-16.139 3.1296-4.3631 6.9216-7.6525 11.376-9.8683 4.4545-2.2386 9.5258-3.358 15.214-3.358zm0-21.073c-9.1831 0-17.567 1.6676-25.151 5.0027-7.5612 3.3123-14.106 8.1436-19.634 14.494-5.5053 6.3276-9.7656 13.969-12.781 22.923-3.0154 8.9317-4.523 19.051-4.523 30.359v8.2236c0 11.307 1.5191 21.45 4.5573 30.427 3.061 8.9774 7.367 16.618 12.918 22.923 5.551 6.3047 12.107 11.125 19.668 14.46 7.5841 3.3123 15.968 4.9684 25.151 4.9684 9.2516 0 17.681-1.6561 25.288-4.9684 7.6069-3.3351 14.129-8.1551 19.565-14.46 5.4596-6.3047 9.6628-13.946 12.61-22.923 2.9468-8.9774 4.4202-19.12 4.4202-30.427v-8.2236c0-11.307-1.4962-21.427-4.4888-30.359-2.9696-8.9546-7.1957-16.596-12.678-22.923-5.4825-6.3504-12.027-11.182-19.634-14.494-7.6069-3.3351-16.036-5.0027-25.288-5.0027z"/>
   <path d="m393.87 223.79c-7.881 0-15.077 1.0165-21.587 3.0496-6.5104 2.0102-12.153 4.8542-16.927 8.532-4.7515 3.6549-8.4179 7.9837-10.999 12.986-2.5585 5.0027-3.8377 10.554-3.8377 16.653 0 6.1677 1.2336 11.604 3.7007 16.31 2.4671 4.6829 5.9279 8.8289 10.382 12.438 4.4545 3.5864 9.6743 6.7388 15.659 9.4571 6.0078 2.6955 12.575 5.1397 19.703 7.3327 6.5104 1.9874 11.867 3.929 16.07 5.825 4.226 1.8731 7.5041 3.8034 9.8341 5.7908s3.952 4.1803 4.8657 6.5789c0.93658 2.3985 1.4049 5.1397 1.4049 8.2236 0 4.0433-1.028 7.6068-3.0839 10.691-2.0559 3.0838-5.1284 5.4824-9.2174 7.1956-4.0661 1.7132-9.1146 2.5699-15.145 2.5699-4.5916 0-8.8976-0.51398-12.918-1.5419-3.9977-1.0279-7.5041-2.6155-10.519-4.7628-3.0154-2.1701-5.3682-4.9684-7.0587-8.3949-1.6676-3.4265-2.5014-7.5726-2.5014-12.438h-25.802c0 7.9495 1.679 14.894 5.037 20.833 3.358 5.9164 7.881 10.851 13.569 14.802 5.688 3.929 12.004 6.853 18.949 8.7718 6.9673 1.9189 14.049 2.8783 21.245 2.8783 8.0181 0 15.294-0.93658 21.827-2.8097 6.5561-1.896 12.176-4.6029 16.859-8.1208 4.7057-3.5407 8.3265-7.8239 10.862-12.849 2.5356-5.0484 3.8035-10.725 3.8035-17.03 0-6.0306-1.028-11.422-3.0839-16.173-2.0559-4.7743-5.1398-9.046-9.2516-12.815-4.1118-3.7692-9.2516-7.1386-15.419-10.108-6.1678-2.9925-13.398-5.7222-21.69-8.1893-5.4825-1.5762-10.245-3.2209-14.289-4.9342-4.0433-1.7133-7.4013-3.5407-10.074-5.4824-2.6727-1.9645-4.6601-4.089-5.9622-6.3733-1.3021-2.3072-1.9531-4.8656-1.9531-7.6753 0-3.9748 0.99368-7.5383 2.9811-10.691 1.9874-3.1524 5.0027-5.6537 9.0461-7.504s9.1146-2.7755 15.214-2.7755c6.4419 0 11.764 1.0965 15.968 3.2894 4.2261 2.1929 7.3785 5.1969 9.4572 9.0117 2.1016 3.792 3.1524 8.1551 3.1524 13.089h25.596c0-8.3607-2.1816-16.002-6.5447-22.923-4.3403-6.9215-10.542-12.438-18.606-16.55-8.0409-4.1118-17.612-6.1677-28.714-6.1677z"/>
  </g>
  <g fill="#000">
   <path d="m145.1 97.493v19.777h-13.135v13.135h13.135v46.419c0 5.5226 0.89554 9.9505 2.6866 13.284 1.7911 3.3334 4.2787 5.7381 7.4629 7.2141 3.1842 1.4594 6.841 2.1891 10.971 2.1891 2.5374 0 4.7846-0.17413 6.7415-0.5224 1.9735-0.34827 3.7066-0.74629 5.1992-1.1941l-0.074631-13.732c-0.69653 0.14926-1.617 0.29852-2.7613 0.44778-1.1443 0.14925-2.3384 0.22388-3.5822 0.22388-1.7413 0-3.2588-0.22388-4.5524-0.67166-1.2936-0.44777-2.3052-1.3267-3.0349-2.6369-0.71312-1.3268-1.0697-3.2339-1.0697-5.7216v-45.3h14.403v-13.135h-14.403v-19.777z"/>
   <path d="m201.67 86.523c-3.2339 0-5.763 0.91213-7.5873 2.7364-1.8077 1.8077-2.7115 4.0797-2.7115 6.8161 0 2.6867 0.90384 4.9255 2.7115 6.7166 1.8243 1.7911 4.3534 2.6867 7.5873 2.6867 3.1842 0 5.6967-0.89555 7.5376-2.6867 1.8409-1.7911 2.7613-4.03 2.7613-6.7166 0-2.7364-0.92043-5.0084-2.7613-6.8161-1.8409-1.8243-4.3534-2.7364-7.5376-2.7364zm-9.1048 30.747v80.749h18.06v-80.749z"/>
   <path d="m271.38 115.78c-4.826 0-9.2043 0.93701-13.135 2.811-3.9305 1.8574-7.3054 4.5026-10.125 7.9356-0.13599 0.16656-0.27054 0.33471-0.40364 0.50444l-0.59142-9.7585h-16.941v80.749h17.986v-57.371c0.58144-1.1183 1.2365-2.1693 1.9652-3.1531 1.675-2.2389 3.7315-4.0051 6.1693-5.2987 2.4379-1.2936 5.1992-1.9404 8.2838-1.9404 3.1344 0 5.7548 0.48924 7.861 1.4677 2.1228 0.96188 3.7397 2.5788 4.8509 4.8509 1.1277 2.2554 1.6916 5.3235 1.6916 9.2043v52.24h18.06v-52.166c0-5.5226-0.59705-10.183-1.7911-13.981-1.1941-3.8144-2.9271-6.9156-5.1992-9.3038-2.2555-2.3881-4.967-4.1129-8.1346-5.1743-3.151-1.078-6.6669-1.617-10.548-1.617z"/>
   <path d="m307.05 117.27 28.596 80.548-2.6247 7.0665c-0.89554 2.6866-1.9818 4.826-3.2588 6.4181-1.2604 1.5921-2.8857 2.7447-4.8758 3.4578-1.9901 0.72971-4.4778 1.0946-7.4629 1.0946-0.44778 0-1.0365-0.024872-1.7662-0.074631-0.71313-0.049759-1.3185-0.099503-1.816-0.14926l0.074615 13.732c1.2936 0.29851 2.6701 0.58044 4.1295 0.84579 1.476 0.28194 3.0101 0.4229 4.6021 0.4229 4.03 0 7.4629-0.66336 10.299-1.9901 2.8359-1.3102 5.2075-3.0266 7.1147-5.1494 1.9238-2.1062 3.4827-4.3285 4.6768-6.6669s2.1642-4.5026 2.9105-6.4927l32.389-93.063h-19.254l-16.825 55.169-17.504-55.169z"/>
   <path d="m120.85 246.41c6.7845 0 12.267 1.2678 16.447 3.8034 4.1804 2.5356 7.2414 5.8822 9.1831 10.04 1.9646 4.1346 2.9468 8.5663 2.9468 13.295 0 5.0027-0.98227 9.4457-2.9468 13.329-1.9417 3.8605-5.0027 6.8873-9.1831 9.0802-4.1804 2.1929-9.6628 3.2894-16.447 3.2894h-31.044v-52.837zm-56.846-20.559v149.67h25.802v-55.818h31.044c11.582 0 21.427-1.8503 29.537-5.5509 8.1323-3.7006 14.323-9.0117 18.572-15.933 4.2489-6.9215 6.3734-15.214 6.3734-24.876 0-9.183-2.1245-17.349-6.3734-24.499-4.2489-7.1728-10.44-12.792-18.572-16.858-8.1095-4.089-17.955-6.1334-29.537-6.1334z"/>
   <path d="m255.61 244.87c5.688 0 10.794 1.1193 15.317 3.358 4.523 2.2158 8.3379 5.5052 11.445 9.8683 3.1296 4.3402 5.4939 9.7198 7.0929 16.139 1.6219 6.3961 2.4329 13.775 2.4329 22.135v8.4292c0 8.3607-0.81094 15.762-2.4329 22.204-1.599 6.4418-3.9405 11.879-7.0244 16.31-3.0839 4.4088-6.8531 7.7325-11.308 9.9711-4.4545 2.2158-9.56 3.3237-15.317 3.3237-5.688 0-10.759-1.1079-15.214-3.3237-4.4545-2.2386-8.2808-5.5623-11.479-9.9711-3.1753-4.4316-5.5853-9.8683-7.23-16.31-1.6447-6.4418-2.4671-13.843-2.4671-22.204v-8.4292c0-8.3607 0.82237-15.739 2.4671-22.135 1.6447-6.419 4.0205-11.799 7.1272-16.139 3.1296-4.3631 6.9216-7.6525 11.376-9.8683 4.4545-2.2386 9.5258-3.358 15.214-3.358zm0-21.073c-9.1831 0-17.567 1.6676-25.151 5.0027-7.5612 3.3123-14.106 8.1436-19.634 14.494-5.5053 6.3276-9.7656 13.969-12.781 22.923-3.0154 8.9317-4.523 19.051-4.523 30.359v8.2236c0 11.307 1.5191 21.45 4.5573 30.427 3.061 8.9774 7.367 16.618 12.918 22.923 5.551 6.3047 12.107 11.125 19.668 14.46 7.5841 3.3123 15.968 4.9684 25.151 4.9684 9.2516 0 17.681-1.6561 25.288-4.9684 7.6069-3.3351 14.129-8.1551 19.565-14.46 5.4596-6.3047 9.6628-13.946 12.61-22.923 2.9468-8.9774 4.4202-19.12 4.4202-30.427v-8.2236c0-11.307-1.4962-21.427-4.4888-30.359-2.9696-8.9546-7.1957-16.596-12.678-22.923-5.4825-6.3504-12.027-11.182-19.634-14.494-7.6069-3.3351-16.036-5.0027-25.288-5.0027z"/>
   <path d="m393.87 223.79c-7.881 0-15.077 1.0165-21.587 3.0496-6.5104 2.0102-12.153 4.8542-16.927 8.532-4.7515 3.6549-8.4179 7.9837-10.999 12.986-2.5585 5.0027-3.8377 10.554-3.8377 16.653 0 6.1677 1.2336 11.604 3.7007 16.31 2.4671 4.6829 5.9279 8.8289 10.382 12.438 4.4545 3.5864 9.6743 6.7388 15.659 9.4571 6.0078 2.6955 12.575 5.1397 19.703 7.3327 6.5104 1.9874 11.867 3.929 16.07 5.825 4.226 1.8731 7.5041 3.8034 9.8341 5.7908s3.952 4.1803 4.8657 6.5789c0.93658 2.3985 1.4049 5.1397 1.4049 8.2236 0 4.0433-1.028 7.6068-3.0839 10.691-2.0559 3.0838-5.1284 5.4824-9.2174 7.1956-4.0661 1.7132-9.1146 2.5699-15.145 2.5699-4.5916 0-8.8976-0.51398-12.918-1.5419-3.9977-1.0279-7.5041-2.6155-10.519-4.7628-3.0154-2.1701-5.3682-4.9684-7.0587-8.3949-1.6676-3.4265-2.5014-7.5726-2.5014-12.438h-25.802c0 7.9495 1.679 14.894 5.037 20.833 3.358 5.9164 7.881 10.851 13.569 14.802 5.688 3.929 12.004 6.853 18.949 8.7718 6.9673 1.9189 14.049 2.8783 21.245 2.8783 8.0181 0 15.294-0.93658 21.827-2.8097 6.5561-1.896 12.176-4.6029 16.859-8.1208 4.7057-3.5407 8.3265-7.8239 10.862-12.849 2.5356-5.0484 3.8035-10.725 3.8035-17.03 0-6.0306-1.028-11.422-3.0839-16.173-2.0559-4.7743-5.1398-9.046-9.2516-12.815-4.1118-3.7692-9.2516-7.1386-15.419-10.108-6.1678-2.9925-13.398-5.7222-21.69-8.1893-5.4825-1.5762-10.245-3.2209-14.289-4.9342-4.0433-1.7133-7.4013-3.5407-10.074-5.4824-2.6727-1.9645-4.6601-4.089-5.9622-6.3733-1.3021-2.3072-1.9531-4.8656-1.9531-7.6753 0-3.9748 0.99368-7.5383 2.9811-10.691 1.9874-3.1524 5.0027-5.6537 9.0461-7.504s9.1146-2.7755 15.214-2.7755c6.4419 0 11.764 1.0965 15.968 3.2894 4.2261 2.1929 7.3785 5.1969 9.4572 9.0117 2.1016 3.792 3.1524 8.1551 3.1524 13.089h25.596c0-8.3607-2.1816-16.002-6.5447-22.923-4.3403-6.9215-10.542-12.438-18.606-16.55-8.0409-4.1118-17.612-6.1677-28.714-6.1677z"/>
  </g>
 </g>
</svg>
